# xmcd
#
# Track frame offsets: 
#        150
#        11089
#        25687
#        37182
#        46443
#        62936
#        80275
#        89629
#        104815
#        122752
#        133943
#        145463
#        160845
#        174865
#        189932
#
# Disc length: 2691 seconds
#
# Revision: 0
# Processed by: cddbd v1.5.2PL0 Copyright (c) Steve Scherf et al.
# Submitted via: ExactAudioCopy v0.99pb4
#
DISCID=d40a810f
DTITLE=Replacements - Live at the Roxy
DYEAR=1985
DGENRE=Ambient
TTITLE0=Love You Till Friday
TTITLE1=Bastards of Young
TTITLE2=Color Me Impressed
TTITLE3=Hayday
TTITLE4=Little Mascara
TTITLE5=Left of the Dial
TTITLE6=Nowhere Man
TTITLE7=Can't Hardly Wait
TTITLE8=Swingin' Party
TTITLE9=I'm in Trouble
TTITLE10=We're Comin' Out
TTITLE11=I Will Dare
TTITLE12=Favorite Thing
TTITLE13=Kiss Me on the Bus
TTITLE14=Baby Strange
EXTD=
EXTT0=
EXTT1=
EXTT2=
EXTT3=
EXTT4=
EXTT5=
EXTT6=
EXTT7=
EXTT8=
EXTT9=
EXTT10=
EXTT11=
EXTT12=
EXTT13=
EXTT14=
PLAYORDER=
